<svg width="257" height="273" viewBox="0 0 257 273" fill="none" xmlns="http://www.w3.org/2000/svg">
<path d="M156.297 93.7729C163.581 76.7818 175.968 82.1447 185.538 84.534C190.429 57.2421 209.462 71.95 212.492 74.0208C208.345 50.074 194.788 43.8085 192.981 42.5342C192.183 45.8262 189.1 46.7288 186.495 46.1979C185.272 49.2775 181.497 47.5784 179.53 46.0917C179.052 48.3749 178.733 47.7908 177.085 47.5784C177.669 48.1625 178.52 52.5164 174.958 51.2952C168.1 49.3837 165.867 39.0298 166.877 36.1625C168.578 28.3041 171.875 25.9148 173.842 26.2864C174.852 23.4192 177.616 22.782 180.221 23.1006C182.72 20.7112 186.495 22.6227 186.495 22.6227C186.495 22.6227 189.419 19.8086 199.36 24.3218C250.132 51.1359 249.813 65.3129 251.567 73.8615C255.874 77.5252 256.565 81.1358 251.78 85.2243L235.246 98.1269C225.677 124.304 189.525 121.065 184.528 121.277C184.474 121.277 184.368 121.224 184.368 121.224C181.816 130.888 172.831 151.861 157.573 160.198C153.373 161.95 154.862 189.348 149.599 190.144C145.399 190.144 128.493 190.144 128.493 190.144V93.3482L142.156 88.6756C142.262 88.6756 152.523 86.9765 156.297 93.7729Z" fill="#8C8C8C" stroke="#8C8C8C" stroke-width="2.6002" stroke-miterlimit="10"/>
<path d="M213.927 76.8349C213.927 76.8349 221.051 84.534 227.963 79.2242C223.55 79.3835 220.892 81.1888 213.821 75.6136C213.98 76.9411 213.927 76.8349 213.927 76.8349Z" fill="#8C8C8C"/>
<path d="M127.855 124.091C127.429 144.959 128.174 141.029 128.652 141.029C129.13 141.029 129.556 144.375 129.503 124.091C129.503 105.03 129.13 105.136 128.705 105.136C128.227 105.136 128.227 105.136 127.855 124.091Z" fill="#8C8C8C"/>
<path opacity="0.5" d="M193.034 40.4634C193.034 40.4634 216.001 48.2687 215.788 77.0473C213.608 75.5606 213.608 75.5606 213.608 75.5606C213.608 75.5606 213.502 56.7642 192.662 41.7908C192.662 40.4634 193.034 40.4634 193.034 40.4634Z" fill="#8C8C8C"/>
<path d="M100.794 93.7729C93.5104 76.7818 81.1232 82.1447 71.5537 84.534C66.6626 57.2421 47.6298 71.95 44.5995 74.0208C48.7463 50.074 62.3031 43.8085 64.1107 42.5342C64.9082 45.8262 67.9917 46.7288 70.5967 46.1979C71.8195 49.2775 75.5941 47.5784 77.5612 46.0917C78.0397 48.3749 78.3587 47.7908 80.0068 47.5784C79.422 48.1625 78.5713 52.5164 82.1333 51.2952C88.9915 49.3837 91.2244 39.0298 90.2143 36.1625C88.513 28.3041 85.2168 25.9148 83.2498 26.2864C82.2396 23.4192 79.4751 22.782 76.8701 23.1006C74.3714 20.7112 70.5967 22.6227 70.5967 22.6227C70.5967 22.6227 67.6727 19.8086 57.731 24.3218C6.9593 51.1359 7.27829 65.3129 5.52387 73.8615C1.21758 77.5252 0.526446 81.1358 5.31121 85.2243L21.8452 98.1269C31.4148 124.304 67.5664 121.065 72.5638 121.277C72.6169 121.277 72.7233 121.224 72.7233 121.224C75.2752 130.888 84.2599 151.861 99.518 160.198C103.718 161.95 102.229 189.348 107.493 190.144C111.693 190.144 128.599 190.144 128.599 190.144V93.3482L114.936 88.6756C114.829 88.6756 104.569 86.9765 100.794 93.7729Z" fill="#8C8C8C" stroke="#8C8C8C" stroke-width="2.6002" stroke-miterlimit="10"/>
<path d="M249.441 75.826C247.261 67.8084 247.261 51.8261 198.988 26.2864C189.525 21.9855 186.761 24.6404 186.761 24.6404C186.761 24.6404 183.199 22.782 180.806 25.0652C178.307 24.7466 175.702 25.3837 174.745 28.0917C172.885 27.7731 169.748 30.0563 168.153 37.4899C167.196 40.1978 168.791 48.6403 175.277 50.4456C178.626 51.6137 176.659 47.2067 176.128 46.6757C177.67 46.8881 179.264 46.9943 179.69 44.8173C181.55 46.1978 185.166 47.8969 186.282 44.9235C188.781 45.4545 191.705 44.6049 192.449 41.4722C194.204 42.6403 212.279 51.7199 213.874 76.7287C211.003 74.7641 192.662 58.2509 186.388 85.8083C177.297 83.5251 162.996 80.2862 156.829 95.2065C156.829 95.2596 156.829 95.2596 156.829 95.3127C149.014 88.8348 143.06 90.534 143.06 90.534L129.397 93.7729V93.6667L113.819 90.4809C113.819 90.4809 107.865 88.7817 100.05 95.2596C100.05 95.2065 100.05 95.2065 100.05 95.1534C93.8829 80.2331 79.5818 83.472 70.4907 85.7552C64.2173 58.1978 45.8757 74.711 43.0049 76.6756C44.653 51.7199 62.7287 42.6403 64.43 41.4191C65.1743 44.5518 68.0983 45.4014 70.597 44.8704C71.7666 47.8438 75.3818 46.1447 77.1894 44.7642C77.6147 46.9412 79.2096 46.835 80.7514 46.6226C80.2197 47.1536 78.2527 51.6137 81.602 50.3925C88.088 48.5341 89.7361 40.1448 88.726 37.4368C87.0779 30.0032 83.9412 27.72 82.1336 28.0386C81.1767 25.3306 78.5716 24.6935 76.0729 25.0121C73.6805 22.7289 70.1186 24.5873 70.1186 24.5873C70.1186 24.5873 67.354 21.9324 57.8908 26.2333C9.61782 51.773 9.61782 67.7553 7.43809 75.7729C3.34446 79.2243 3.8761 81.826 8.39505 85.7021L23.0152 96.7463C32.1062 121.596 69.5337 120.268 73.4147 119.631C73.4679 119.631 73.5211 119.631 73.5211 119.684C75.9666 128.87 86.1741 151.118 100.688 159.029C108.609 164.817 99.8904 190.303 112.278 190.516C115.627 190.516 125.09 190.728 128.067 190.834V190.941C128.067 190.941 140.348 190.516 144.336 190.516C156.723 190.303 148.004 164.817 155.925 159.029C170.439 151.118 180.7 128.87 183.092 119.684C183.145 119.684 183.199 119.684 183.199 119.631C187.08 120.268 224.507 121.596 233.598 96.7463L248.218 85.7021C253.056 81.8791 253.588 79.2774 249.441 75.826Z" fill="white"/>
<path d="M98.2952 102.959C98.4015 102.959 98.561 103.012 98.6673 103.012C99.3053 103.118 99.9964 103.224 100.794 103.437C107.174 104.711 114.138 106.729 118.923 108.534C118.976 108.534 118.976 108.587 119.029 108.587C121.156 109.383 122.432 110.021 123.282 110.552C123.973 110.976 124.399 111.295 124.558 111.614C124.611 111.667 124.877 111.773 124.877 111.773C124.877 97.3304 124.877 96.7994 124.877 96.7994C122.272 96.587 103.027 94.8879 95.2117 102.481C96.1155 102.587 97.0724 102.746 98.0825 102.906C98.1889 102.906 98.242 102.959 98.2952 102.959Z" fill="white"/>
<path d="M127.642 123.985C127.642 105.03 128.014 105.136 128.439 105.136C128.865 105.136 128.865 105.136 129.237 123.985" fill="#8C8C8C"/>
<path d="M164.432 72.4279L166.345 73.8615C166.345 73.8615 181.71 81.6668 170.492 90.8526C170.492 90.8526 173.842 83.6314 164.325 81.7199C164.325 81.7199 165.282 78.6934 157.573 74.4987C157.573 74.4987 151.087 69.8792 150.449 68.4456L144.389 55.9678C144.92 60.3218 141.73 85.7553 146.781 92.711L134.128 101.472L128.652 104.339L113.607 93.7199C113.607 93.7199 112.384 75.0828 113.075 70.6226C113.075 70.6226 112.384 57.2952 113.288 50.6581C113.288 50.6581 111.64 45.9324 113.5 39.4015L112.65 33.9325C112.65 33.9325 112.437 33.667 115.095 26.8705L113.128 24.7998C113.128 24.7998 105.154 16.5166 106.855 9.45467L121.581 17.1538C121.581 17.1538 120.252 17.2069 116.69 14.8175L116.371 6.10955C116.371 6.10955 120.837 2.81753 125.941 3.13611C125.941 3.13611 130.672 2.23346 131.736 1.27771C131.736 1.27771 128.493 4.14496 125.356 4.99451C125.356 4.99451 117.381 7.38388 121.05 13.5963L123.602 16.3573C123.602 16.3573 127.748 1.86178 145.665 12.7998C145.665 12.7998 154.915 17.2069 164.272 15.5608C164.272 15.5608 156.882 18.6936 150.29 19.8617L154.49 20.1272C154.49 20.1272 155.925 19.9679 161.295 22.0918C161.295 22.0918 164.751 23.5254 171.875 24.0033C171.875 24.0033 170.918 25.7555 162.464 29.844L152.948 33.4015C152.948 33.4015 156.723 40.4634 167.621 40.7289C167.621 40.7289 164.272 48.1094 150.343 42.4811L150.184 42.428L149.758 42.0563L149.652 43.0121C149.652 43.0121 152.523 45.7731 154.49 47.1006C154.49 47.1006 164.272 56.074 171.928 49.6492C171.928 49.6492 177.776 47.1537 182.242 48.0563C182.242 48.0563 172.991 51.5607 171.821 58.835L174.426 60.2156C174.426 60.2156 184.953 63.3483 183.092 76.2509C183.092 76.2509 180.859 66.6934 167.196 71.366" fill="white"/>
<path d="M115.946 25.8085C115.946 25.8085 113.766 32.3395 114.085 34.1448C114.457 35.9501 114.032 34.5696 114.032 34.5696C114.032 34.5696 116.85 34.7289 118.71 40.5695C120.571 46.4102 118.71 40.9943 118.71 40.9943C118.71 40.9943 118.232 40.7288 117.435 39.8262C117.435 39.8262 112.278 39.9324 113.181 37.2244C113.181 37.2244 112.278 37.0651 111.799 37.3837V36.4811C111.746 36.5342 110.151 33.5076 115.946 25.8085Z" fill="#8C8C8C"/>
<path d="M151.353 37.543C151.087 38.1271 150.822 38.7111 150.715 39.3483C150.556 39.9324 150.503 40.5165 150.556 41.0474C150.556 41.6846 150.503 42.3749 150.396 43.0651C150.343 43.4368 150.29 43.7554 150.13 44.1271C150.077 44.3394 149.971 44.4987 149.865 44.7111C149.811 44.8173 149.705 44.9235 149.599 45.0828C149.546 45.1359 149.439 45.2421 149.333 45.2952C149.28 45.3483 149.227 45.3483 149.12 45.4014C149.067 45.4014 149.014 45.4545 148.961 45.4545H148.854H148.801C148.748 45.4545 148.695 45.4545 148.642 45.4545L147.579 45.4014L147.791 44.2333C147.844 43.9678 147.898 43.543 147.898 43.2244C147.898 42.8527 147.898 42.481 147.898 42.1094C147.844 41.366 147.738 40.6757 147.525 39.9324C147.153 38.4988 146.462 37.2244 145.558 36.0563C143.751 33.72 141.093 32.074 138.275 30.7997C137.584 30.4811 136.839 30.2156 136.095 29.9501C135.298 29.6846 134.553 29.3129 133.756 28.9944C132.267 28.3041 130.779 27.5076 129.396 26.6581C127.961 25.8085 126.579 24.8528 125.356 23.6847C124.718 23.1006 124.133 22.4634 123.655 21.7732C123.176 21.0829 122.751 20.2333 122.645 19.3307L123.389 19.5431C122.804 20.1271 122.219 20.8705 121.794 21.6139C121.369 22.3572 121.05 23.2068 120.943 24.0563C120.837 24.9059 121.05 25.8085 121.475 26.605C121.9 27.4015 122.591 28.0386 123.336 28.5696C122.538 28.0917 121.794 27.5076 121.262 26.7643C120.731 25.9678 120.412 25.0121 120.465 24.0563C120.465 23.1006 120.784 22.1448 121.209 21.2953C121.634 20.4457 122.113 19.6493 122.804 18.9059L123.336 18.3218L123.548 19.1714C123.761 19.8617 124.133 20.4988 124.665 21.0298C125.143 21.5608 125.728 22.0917 126.366 22.5696C127.004 23.0475 127.642 23.4723 128.333 23.8439C129.024 24.2687 129.715 24.6404 130.407 25.0121C131.842 25.7023 133.277 26.3926 134.766 26.9767C135.51 27.2422 136.255 27.5607 136.946 27.7731C137.743 27.9855 138.541 28.3041 139.285 28.6227C140.827 29.2599 142.368 30.0563 143.804 31.0121C145.239 32.0209 146.515 33.189 147.579 34.6227C148.642 36.0563 149.386 37.7023 149.758 39.4545C149.918 40.3041 150.024 41.2067 150.024 42.1094C150.024 42.5341 149.971 43.012 149.918 43.4368C149.865 43.9147 149.758 44.2863 149.652 44.8173L148.801 43.5961C148.748 43.5961 148.695 43.5961 148.695 43.5961H148.642C148.589 43.5961 148.589 43.5961 148.589 43.5961C148.536 43.5961 148.536 43.5961 148.482 43.6492C148.429 43.7023 148.429 43.7023 148.376 43.7023C148.323 43.7554 148.323 43.7554 148.323 43.7554C148.376 43.7023 148.429 43.5961 148.482 43.4899C148.589 43.2775 148.695 43.012 148.748 42.6934C148.908 42.1094 149.014 41.5253 149.12 40.8881C149.227 40.1448 149.599 39.5076 149.971 38.9235C150.343 38.3926 150.822 37.9147 151.353 37.543Z" fill="#8C8C8C"/>
<path d="M136.999 40.5165C136.999 40.5165 138.221 34.6227 145.292 36.7466C145.292 36.7466 141.89 36.959 142.421 37.8086C142.421 37.8086 141.89 42.8528 138.168 39.5608C138.168 39.5608 137.477 39.8262 136.945 40.6758" fill="#8C8C8C"/>
<path d="M115.627 63.2421C115.627 63.2421 117.328 58.4103 114.138 51.136C114.138 51.136 112.49 46.251 112.65 42.2156C112.65 42.2156 111.905 47.2068 112.65 50.074C112.65 50.074 112.65 52.1448 114.191 54.2156C114.191 54.2156 115.52 57.1359 115.627 63.2421Z" fill="#8C8C8C"/>
<path d="M122.857 60.8527C122.857 60.8527 120.89 58.3571 119.508 62.4987C119.508 62.4987 117.807 70.1978 122.857 68.8703C122.857 68.8703 126.738 67.8084 124.239 64.5695C124.239 64.5695 121.741 61.8615 122.857 60.8527Z" fill="#8C8C8C"/>
<path d="M133.118 60.8527C133.118 60.8527 135.085 58.3571 136.467 62.4987C136.467 62.4987 138.168 70.1978 133.118 68.8703C133.118 68.8703 129.237 67.8084 131.736 64.5695C131.736 64.5695 134.234 61.8615 133.118 60.8527Z" fill="#8C8C8C"/>
<path d="M117.966 72.5872C117.966 72.5872 119.508 77.5783 126.259 77.6845C126.259 77.6845 133.862 78.3747 136.999 73.6491C136.999 73.6491 136.839 80.4986 126.791 79.7022C126.791 79.7022 117.275 79.7022 117.966 72.5872Z" fill="#8C8C8C"/>
<path d="M137.637 64.5694C137.637 64.5694 136.361 54.0031 140.986 50.8704Z" fill="#8C8C8C"/>
<path d="M142.847 55.2244C143.113 54.5872 143.219 53.95 143.325 53.2598C143.432 52.6226 143.485 51.9323 143.538 51.2421C143.644 49.9147 143.644 48.5872 143.591 47.2067C143.591 46.5164 143.591 45.8793 143.538 45.189C143.485 44.4987 143.485 43.8616 143.432 43.1713V42.9058V42.8527V42.7996V42.7465C143.538 42.4811 143.166 43.1713 143.698 42.1094C146.781 43.1182 144.548 42.4811 145.239 42.6934V42.7465V42.7996V42.8527V43.3837L145.292 44.3926L145.346 46.4102C145.505 51.8262 145.505 57.2421 145.346 62.658C145.186 68.0739 144.92 73.4898 144.389 78.9057C144.123 81.6137 143.804 84.3216 143.379 86.9765C142.953 89.6844 142.475 92.3393 141.624 94.941C141.89 92.2331 142.049 89.5251 142.156 86.8703C142.262 84.1623 142.315 81.4544 142.422 78.7995L142.794 62.6049C142.9 57.189 143.06 51.8262 143.219 46.4102L143.272 44.3926L143.325 43.3837V42.9058V42.8527C144.017 43.1182 141.784 42.428 144.867 43.4368C145.399 42.3749 145.027 43.1182 145.133 42.8527C145.133 42.7996 145.133 42.8527 145.133 42.8527V42.9058V43.1713C145.08 44.4987 144.973 45.8793 144.867 47.2598C144.708 48.6403 144.495 49.9678 144.229 51.3483C144.07 52.0385 143.91 52.6757 143.644 53.3129C143.538 53.6315 143.379 53.95 143.272 54.2686C143.219 54.6403 143.06 54.9589 142.847 55.2244Z" fill="#8C8C8C"/>
<path d="M113.553 92.3393C113.553 92.3393 109.832 68.3925 113.128 52.1448C113.128 52.1448 113.128 63.0828 113.5 67.1713C113.5 67.2244 113.606 82.1978 113.553 92.3393Z" fill="#8C8C8C"/>
<path d="M133.809 44.0209C133.809 44.0209 131.045 51.6669 132.267 56.3926Z" fill="#8C8C8C"/>
<path d="M122.166 44.0209C122.166 44.0209 124.931 51.6669 123.708 56.3926Z" fill="#8C8C8C"/>
<path d="M116.637 26.8174C116.637 26.8174 115.308 29.8439 115.52 31.8616Z" fill="white"/>
<path d="M116.637 26.8174C116.531 27.72 116.318 28.5696 116.159 29.366C115.946 30.2156 115.733 30.959 115.574 31.8616C115.361 31.4368 115.308 30.959 115.308 30.5342C115.308 30.0563 115.361 29.6315 115.467 29.2068C115.574 28.782 115.733 28.3572 115.893 27.9324C116.105 27.5607 116.318 27.136 116.637 26.8174Z" fill="#8C8C8C"/>
<path d="M139.232 9.72017C139.232 9.72017 143.166 5.89717 144.707 5.68478C146.249 5.47239 146.621 9.1892 146.409 12.5343" fill="white"/>
<path d="M139.232 9.72017C139.232 9.72017 143.166 5.89717 144.707 5.68478C146.249 5.47239 146.621 9.1892 146.409 12.5343" stroke="#8C8C8C" stroke-width="4.7909" stroke-miterlimit="10"/>
<path d="M151.885 55.8085C152.416 57.6138 153.267 59.2598 154.224 60.8527C155.181 62.4456 156.191 63.9323 157.361 65.3129C158.53 66.6934 159.753 68.0208 161.135 69.2421C162.464 70.4633 163.9 71.6314 165.335 72.6934L166.452 73.4898L167.621 74.2863C168.419 74.8173 169.163 75.3482 169.907 75.8792C170.652 76.4102 171.449 76.9942 172.194 77.5783C172.938 78.1624 173.682 78.7464 174.426 79.4898C174.799 79.8615 175.171 80.2332 175.49 80.6579C175.809 81.1358 176.128 81.6668 176.34 82.304C176.5 82.9411 176.5 83.6845 176.287 84.3216C176.128 84.9057 175.862 85.4367 175.543 85.8615C174.426 87.6137 173.097 88.888 171.875 90.3216L171.768 90.4809L171.662 90.534L171.29 90.7464C171.13 90.7995 171.077 90.9057 170.758 90.9588C170.705 90.9588 170.705 90.9588 170.652 91.0119C170.599 91.0119 170.545 91.0119 170.439 91.0119C170.386 91.0119 170.333 91.0119 170.28 91.0119C170.226 91.0119 170.173 91.0119 170.067 90.9588C169.907 90.9057 169.748 90.7995 169.588 90.6402C169.535 90.534 169.482 90.4809 169.482 90.4278C169.482 90.3747 169.429 90.2685 169.429 90.2154C169.429 90.1623 169.429 90.0561 169.429 90.003C169.429 89.9499 169.429 89.8968 169.429 89.8437V89.7376C169.482 89.5252 169.535 89.419 169.588 89.2597C169.748 88.7818 169.907 88.4101 170.014 87.9853C170.226 87.1889 170.226 86.3924 169.907 85.596C169.588 84.8526 168.951 84.1624 168.206 83.5783C167.462 82.9942 166.611 82.5694 165.761 82.1447C166.718 82.304 167.675 82.5694 168.578 83.0473C169.482 83.4721 170.333 84.1093 170.918 85.065C171.556 85.9677 171.715 87.1889 171.556 88.2508C171.502 88.7818 171.343 89.3128 171.237 89.7376C171.183 89.8438 171.183 89.9499 171.183 89.9499V89.8968C171.183 89.8968 171.183 89.7907 171.183 89.7376C171.183 89.6845 171.183 89.6314 171.13 89.5783C171.13 89.5252 171.077 89.4721 171.024 89.419C170.918 89.2597 170.758 89.2066 170.652 89.1535C170.545 89.1535 170.545 89.1004 170.492 89.1004C170.439 89.1004 170.386 89.1004 170.386 89.1004C170.333 89.1004 170.333 89.1004 170.28 89.1004H170.226C170.173 89.1004 170.28 89.0473 170.333 88.9942L170.599 88.8349L170.386 89.0473L172.034 86.8172C172.566 86.0739 173.097 85.3305 173.523 84.6402C173.735 84.2685 173.895 83.95 173.948 83.6314C174.001 83.3128 174.001 83.1004 173.948 82.888C173.788 82.4102 173.31 81.773 172.672 81.1889C171.396 80.0208 169.907 78.9588 168.419 77.8438L166.133 76.1978L165.016 75.4013L163.847 74.5518C160.816 72.2155 158.105 69.4013 155.978 66.2155C154.915 64.6226 154.011 62.9235 153.267 61.1713C152.895 60.3217 152.576 59.4191 152.363 58.4633C152.151 57.6669 151.938 56.7111 151.885 55.8085Z" fill="#8C8C8C"/>
<path d="M115.042 26.8705C113.5 25.9678 112.065 24.8528 110.736 23.6316C109.407 22.3572 108.237 20.9767 107.227 19.4369C106.217 17.8971 105.419 16.1449 105.047 14.1803C104.834 13.2245 104.781 12.2157 104.888 11.2068C104.994 10.198 105.207 9.18913 105.632 8.28648L106.164 7.01215L107.333 7.64931C108.769 8.39267 110.045 9.18913 111.374 10.0387C112.65 10.8882 113.926 11.7378 115.201 12.6935C115.839 13.1714 116.424 13.6493 117.009 14.1272C117.594 14.605 118.232 15.0829 118.817 15.6139C119.986 16.6227 121.156 17.6316 122.219 18.7466C121.528 18.3749 120.837 18.0033 120.199 17.6316C119.508 17.2599 118.87 16.8882 118.179 16.5165L114.191 14.2334L110.204 12.0033C108.875 11.2599 107.546 10.5697 106.217 9.93249L107.918 9.29532C107.333 10.7289 107.227 12.2688 107.493 13.8086C107.758 15.3484 108.343 16.9413 109.088 18.428C109.832 19.9148 110.789 21.4015 111.799 22.782C112.756 24.1625 113.872 25.5431 115.042 26.8705Z" fill="#8C8C8C"/>
<path d="M147.898 20.6581C149.971 19.5961 152.363 19.1713 154.756 19.2775C155.978 19.3837 157.148 19.5961 158.318 20.0209L158.743 20.1802C158.849 20.2333 158.902 20.2333 158.956 20.2864L159.115 20.3926L159.859 20.7112C160.391 20.9236 160.923 21.1359 161.401 21.2952C163.475 22.0386 165.654 22.6758 167.781 22.8882C169.907 23.1536 172.034 22.9412 173.523 21.8793L174.905 24.0032C173.15 25.012 171.396 26.0209 169.588 26.9235C167.781 27.8793 165.973 28.7819 164.166 29.5784C162.305 30.4279 160.444 31.1713 158.53 31.8616C157.573 32.1802 156.616 32.4987 155.606 32.7642C154.596 33.0297 153.586 33.2421 152.576 33.2421C153.533 32.9766 154.49 32.5518 155.394 32.1802C156.297 31.7554 157.201 31.3306 158.052 30.8527C159.806 29.897 161.561 28.8881 163.262 27.9324L168.632 24.9589L173.788 21.8793L175.171 24.0032C174.586 24.3749 174.001 24.6935 173.363 24.9589C172.725 25.1713 172.087 25.3306 171.449 25.4368C170.173 25.6492 168.897 25.543 167.675 25.3837C165.229 25.012 162.943 24.2156 160.816 23.2598C160.285 22.9943 159.753 22.7289 159.221 22.4634L158.424 22.0386L158.211 21.9324C158.158 21.9324 158.105 21.8793 158.052 21.8262L157.733 21.6669C156.776 21.189 155.713 20.8174 154.649 20.605C152.47 20.1271 150.184 20.1802 147.898 20.6581Z" fill="#8C8C8C"/>
<path d="M132.905 21.9324C134.447 22.0917 135.989 22.4103 137.478 22.8351C138.966 23.2599 140.455 23.7908 141.89 24.4811C142.634 24.7997 143.326 25.1714 144.017 25.543C144.708 25.9147 145.399 26.3395 146.037 26.7643C147.366 27.6138 148.642 28.5696 149.865 29.6315L149.758 29.5253C149.918 29.6846 150.024 29.7377 150.131 29.8439L150.396 30.0563L150.875 30.5342L151.885 31.4368C152.576 32.0209 153.267 32.605 153.958 33.1359C155.341 34.251 156.776 35.3129 158.265 36.2156C159.753 37.1182 161.295 37.9678 162.89 38.4987C164.485 39.0828 166.133 39.3483 167.675 39.1359L170.067 38.8704L168.897 40.8881C168.738 41.1536 168.632 41.3129 168.472 41.5253C168.313 41.7377 168.153 41.897 168.047 42.0563C167.728 42.3748 167.409 42.7465 167.037 43.012C166.346 43.5961 165.548 44.074 164.751 44.4456C163.103 45.189 161.348 45.4545 159.594 45.4014C157.893 45.3483 156.244 44.9766 154.65 44.4456C153.108 43.9147 151.619 43.1713 150.184 42.3217C151.725 42.7996 153.32 43.2244 154.862 43.4899C156.404 43.7554 157.999 43.8616 159.541 43.7554C161.029 43.5961 162.518 43.2775 163.794 42.5341C164.432 42.1625 165.016 41.7908 165.548 41.3129C165.814 41.0474 166.027 40.835 166.239 40.5695C166.346 40.4102 166.452 40.3041 166.558 40.1448C166.665 40.0386 166.771 39.8262 166.771 39.7731L167.994 41.5253C165.92 41.8439 163.9 41.4722 162.039 40.8881C160.179 40.251 158.477 39.3483 156.882 38.3395C155.287 37.3306 153.799 36.2156 152.363 34.9943C151.672 34.4103 150.981 33.7731 150.29 33.1359L149.28 32.1802L148.376 31.3306L148.27 31.2244C147.207 30.1625 146.09 29.2067 144.92 28.251C143.751 27.3483 142.475 26.4988 141.199 25.7023C139.923 24.959 138.541 24.2156 137.159 23.5784C135.776 22.9944 134.341 22.4103 132.905 21.9324Z" fill="#8C8C8C"/>
<path d="M149.173 42.428C150.768 43.9147 152.469 45.2421 154.277 46.4103C156.085 47.5784 157.945 48.5873 159.912 49.3306C161.88 50.074 163.9 50.4457 165.867 50.3395C167.834 50.2333 169.748 49.6492 171.449 48.5873L172.672 50.7111L172.512 50.8173L172.406 50.8704L172.353 50.9235H172.3H172.246L172.193 50.9766C172.193 49.9678 172.353 53.2598 170.917 48.9058C171.236 48.6934 171.077 48.7996 171.13 48.7465C171.29 48.6403 171.396 48.5873 171.555 48.5342C171.821 48.428 172.034 48.2687 172.3 48.1625C172.778 47.9501 173.31 47.7377 173.841 47.5253C174.852 47.1536 175.915 46.835 177.031 46.6227C178.148 46.4103 179.264 46.3041 180.381 46.3572C181.55 46.4103 182.667 46.6227 183.783 47.0474L188.674 48.9589L183.464 49.3306C183.251 49.3306 182.879 49.3837 182.613 49.4368C182.295 49.4899 182.029 49.543 181.71 49.6492C181.125 49.8085 180.487 50.0209 179.902 50.2333C178.733 50.7111 177.616 51.4014 176.606 52.1979C176.074 52.6226 175.596 53.0474 175.171 53.5253C174.692 54.0032 174.267 54.481 173.895 55.0651C173.097 56.127 172.459 57.3483 171.874 58.5695C172.087 57.189 172.512 55.8616 173.097 54.5872C173.682 53.3129 174.533 52.0917 175.543 51.0828C176.553 50.0209 177.722 49.1713 178.998 48.4811C179.636 48.1625 180.327 47.8439 181.019 47.5784C181.391 47.4722 181.71 47.366 182.082 47.2598C182.454 47.1536 182.773 47.1005 183.251 47.0474L182.932 49.2775C181.231 48.6934 179.317 48.7465 177.403 49.1182C176.446 49.3306 175.543 49.543 174.586 49.8616C174.107 50.0209 173.682 50.1802 173.203 50.3926C172.991 50.4987 172.778 50.6049 172.565 50.7111L172.3 50.8704C172.353 50.8173 172.193 50.9766 172.512 50.7111C171.077 46.4103 171.236 49.6492 171.236 48.6403L171.183 48.6934H171.13H171.183L171.236 48.6403L171.396 48.5342L172.619 50.658C170.598 51.8262 168.206 52.5164 165.867 52.4633C163.528 52.4633 161.242 51.7731 159.221 50.8704C157.201 49.9147 155.34 48.6403 153.639 47.2067C152.788 46.5165 151.991 45.72 151.247 44.9235C150.502 44.1271 149.811 43.2775 149.173 42.428Z" fill="#8C8C8C"/>
<path d="M145.612 45.4014C146.462 47.5253 148.11 49.1182 149.811 50.4457C151.566 51.7731 153.533 52.7819 155.553 53.5784C157.573 54.4279 159.7 55.012 161.827 55.543C162.358 55.6492 162.89 55.8085 163.421 55.8616C164.006 55.9678 164.538 56.074 165.123 56.1802C166.239 56.4456 167.356 56.7111 168.472 56.9766C170.705 57.5607 172.885 58.2509 175.011 59.1536C176.075 59.5784 177.138 60.1093 178.201 60.6934C178.733 61.012 179.211 61.3306 179.743 61.7023C180.009 61.8615 180.221 62.0739 180.487 62.2863C180.753 62.4987 180.966 62.7111 181.178 62.9235C182.029 63.8261 182.773 64.7819 183.411 65.8438C183.996 66.9058 184.528 68.0739 184.793 69.2951C185.378 71.7376 185.006 74.3394 183.996 76.4633L183.092 78.481L182.454 76.4633C182.348 76.1978 182.188 75.8261 182.082 75.5075C181.923 75.1889 181.763 74.8703 181.55 74.5518C181.178 73.9677 180.7 73.3836 180.168 72.9058C179.105 71.8969 177.829 71.1535 176.394 70.7819C174.958 70.3571 173.416 70.304 171.928 70.4102C170.386 70.5164 168.897 70.8881 167.409 71.3128C168.844 70.6757 170.333 70.1447 171.875 69.8792C173.416 69.6137 175.064 69.5075 176.659 69.8261C178.254 70.1447 179.796 70.835 181.072 71.8969C181.71 72.4279 182.295 73.0119 182.773 73.7022C183.039 74.0208 183.252 74.3925 183.464 74.7642C183.677 75.1358 183.89 75.4544 184.049 75.9323L182.507 75.8792C182.826 74.8703 183.039 73.8615 183.092 72.8527C183.145 71.8438 182.986 70.835 182.72 69.8792C182.135 67.9677 180.966 66.1624 179.53 64.7288C178.095 63.4014 176.128 62.3925 174.161 61.543C172.14 60.6934 170.067 60.0031 167.94 59.366C166.877 59.0474 165.814 58.7288 164.751 58.4633L163.156 58.0916C162.571 57.9855 162.039 57.7731 161.454 57.6669C159.222 57.0297 157.095 56.1801 155.022 55.1713C152.948 54.1094 150.981 52.835 149.333 51.2421C148.482 50.4457 147.738 49.543 147.1 48.5873C146.303 47.5784 145.824 46.5165 145.612 45.4014Z" fill="#8C8C8C"/>
<path d="M165.814 83.419C165.973 83.1535 165.867 82.8349 165.761 82.5695C165.654 82.304 165.442 82.0916 165.282 81.8261C164.91 81.4013 164.485 80.9765 164.006 80.5518C163.102 79.7553 162.092 79.0651 161.135 78.3217C160.125 77.6314 159.115 76.9412 158.105 76.2509L155.075 74.1801L155.022 74.127L154.968 74.0739C154.171 73.4368 153.48 72.7996 152.842 72.1093C152.151 71.4191 151.513 70.7288 150.875 69.9854C149.599 68.5518 148.482 66.9589 147.525 65.3129C146.568 63.6669 145.771 61.8616 145.293 59.9501C145.08 58.9943 144.92 58.0386 144.867 57.0828C144.867 56.1271 144.92 55.1713 145.133 54.2156C145.293 56.1271 145.771 57.8793 146.515 59.5253C146.887 60.3748 147.313 61.1713 147.791 61.9147C148.27 62.7111 148.748 63.4545 149.28 64.1447C150.343 65.6315 151.513 67.012 152.735 68.3394C153.958 69.6669 155.287 70.9412 156.616 72.1093L156.51 72.0562C158.584 73.4898 160.551 75.0297 162.358 76.835C163.262 77.7376 164.113 78.6934 164.91 79.7553C165.282 80.2863 165.654 80.8173 165.867 81.4544C165.973 81.773 166.08 82.0916 166.133 82.4102C166.08 82.8349 166.08 83.2066 165.814 83.419Z" fill="#8C8C8C"/>
<path d="M117.594 5.68472C117.541 5.52542 117.647 5.31303 117.753 5.20684C117.86 5.04755 117.966 4.94135 118.126 4.83516C118.391 4.62277 118.71 4.41038 118.976 4.25109C119.561 3.87941 120.199 3.61393 120.837 3.34844C121.475 3.08295 122.113 2.87057 122.751 2.65818C123.07 2.55198 123.389 2.44579 123.708 2.39269L124.665 2.1803C125.941 1.86172 127.163 1.54314 128.386 1.17146C128.971 0.959067 129.609 0.799776 130.141 0.53429C130.406 0.428096 130.672 0.321902 130.885 0.16261C130.991 0.109513 131.044 0.0564157 131.098 0.00331857C131.151 0.00331857 131.098 -0.0497786 130.991 0.268804L133.437 0.693582C133.437 0.852873 133.384 0.852873 133.384 0.959068L133.33 1.11836C133.277 1.22455 133.277 1.27765 133.224 1.38384C133.171 1.54314 133.065 1.70243 133.012 1.86172C132.852 2.1272 132.639 2.39269 132.48 2.60508C132.108 3.02986 131.682 3.40154 131.257 3.66702C130.406 4.25109 129.503 4.72897 128.599 5.10065C128.174 5.25994 127.695 5.47233 127.217 5.57852L126.579 5.79091L125.994 6.0033C125.196 6.32188 124.399 6.69356 123.708 7.11834C122.963 7.54312 122.326 8.02099 121.741 8.60506C121.156 9.18913 120.784 9.82629 120.677 10.6228C120.571 11.3661 120.784 12.2688 121.103 13.0652C121.422 13.8617 121.953 14.605 122.591 15.2953C121.794 14.8174 121.103 14.1803 120.571 13.3838C120.039 12.5873 119.614 11.6847 119.508 10.6228C119.401 9.56081 119.827 8.44577 120.412 7.59621C120.996 6.74666 121.741 6.05639 122.538 5.47233C123.336 4.88826 124.186 4.35729 125.037 3.93251C125.25 3.82631 125.462 3.72012 125.728 3.61393L126.366 3.34844C126.791 3.18915 127.163 2.97676 127.536 2.81747C128.28 2.44579 129.077 2.02101 129.662 1.59623C129.981 1.38384 130.3 1.11836 130.513 0.852873C130.619 0.746679 130.725 0.587387 130.779 0.481193C130.832 0.428096 130.832 0.374999 130.885 0.321902V0.268804C130.885 0.321902 130.885 0.268804 130.885 0.374999L133.33 0.799776C133.171 1.43694 132.852 1.64933 132.639 1.86172C132.427 2.02101 132.214 2.1803 132.055 2.2865C131.682 2.49889 131.363 2.65818 130.991 2.76437C130.3 3.02986 129.662 3.18915 128.971 3.40154C127.642 3.72012 126.313 3.98561 124.984 4.19799L123.974 4.35729L123.017 4.46348C122.379 4.51658 121.741 4.62277 121.103 4.72897C120.465 4.83516 119.827 4.88826 119.189 5.04755C118.87 5.10065 118.551 5.20684 118.232 5.31303C118.072 5.25994 117.7 5.36613 117.594 5.68472Z" fill="#8C8C8C"/>
<path d="M123.389 16.4103C123.921 14.4458 125.037 12.6404 126.579 11.2068C128.121 9.7201 130.141 8.76435 132.267 8.39267C133.331 8.18028 134.394 8.12719 135.457 8.18028C135.989 8.18028 136.521 8.28648 137.052 8.33958C137.584 8.39267 138.115 8.49887 138.594 8.60506C139.604 8.81745 140.614 9.13603 141.624 9.50771C142.103 9.7201 142.634 9.87939 143.06 10.0918L143.751 10.4104L144.123 10.5697C144.176 10.6228 144.282 10.6228 144.442 10.6759C148.11 12.0564 151.938 13.1714 155.766 13.8617C157.68 14.1803 159.594 14.3927 161.454 14.2865C161.933 14.2334 162.358 14.1803 162.837 14.1272C163.049 14.0741 163.262 14.021 163.475 13.9679C163.687 13.9148 163.953 13.8086 164.166 13.7555L167.037 12.9059H167.09C167.568 12.7466 168.047 13.0121 168.206 13.49C168.313 13.9148 168.153 14.3396 167.781 14.5519C166.292 15.2953 164.857 15.9325 163.368 16.5165C161.88 17.1006 160.391 17.6316 158.849 18.1095C157.308 18.5873 155.766 19.0121 154.224 19.3838C152.682 19.7555 151.087 20.021 149.493 20.2333C151.034 19.8086 152.523 19.3307 154.011 18.7997C155.5 18.2687 156.989 17.7378 158.424 17.1006C159.86 16.4634 161.295 15.8263 162.73 15.136C164.166 14.4457 165.548 13.7024 166.877 12.959L167.622 14.605L164.804 15.667C164.538 15.7732 164.325 15.8263 164.06 15.9325C163.794 16.0387 163.528 16.0918 163.262 16.198C162.73 16.3572 162.199 16.4103 161.667 16.5165C159.541 16.782 157.414 16.6227 155.341 16.3572C151.247 15.7732 147.313 14.5519 143.485 13.0652C143.379 13.0121 143.272 12.959 143.06 12.9059L142.741 12.7466L142.05 12.4281C141.624 12.2157 141.146 12.0564 140.72 11.844C139.817 11.4723 138.913 11.1537 138.009 10.8882C136.202 10.4104 134.288 10.0918 132.427 10.2511C131.523 10.3573 130.566 10.5166 129.716 10.8351C128.812 11.1537 128.014 11.5785 127.217 12.1626C125.675 13.1183 124.346 14.605 123.389 16.4103Z" fill="#8C8C8C"/>
<path d="M117.7 15.4015C116.424 14.3926 115.574 12.9059 115.095 11.2599C114.67 9.61386 114.723 7.75546 115.414 6.10945C115.733 5.31299 116.212 4.51654 116.797 3.87937C117.381 3.2422 118.019 2.65813 118.711 2.23336C120.093 1.33071 121.635 0.746636 123.283 0.640442C122.113 1.75548 120.943 2.71123 120.04 3.77318C119.083 4.83512 118.285 5.89706 117.807 7.1183C117.328 8.28643 117.116 9.61386 117.116 10.9944C117.116 12.3749 117.381 13.8085 117.7 15.4015Z" fill="#8C8C8C"/>
<path d="M128.918 178.994C128.918 178.994 127.801 183.879 130.513 185.525C130.353 184.516 129.981 180.215 128.918 178.994Z" fill="#8C8C8C"/>
<path d="M126.791 179.843C126.791 179.843 125.462 181.861 125.515 184.091C125.568 186.268 125.462 186.746 125.781 187.012C126.26 186.427 126.366 186.109 126.366 186.109L126.951 181.914L126.791 179.843Z" fill="#C6C6C6"/>
<path d="M126.897 188.18C126.897 188.18 126.844 189.082 125.622 189.082C125.515 188.498 126.366 187.967 126.897 188.18Z" fill="#8C8C8C"/>
<path d="M128.227 187.702C128.227 187.702 127.855 188.498 128.652 188.658C129.45 187.861 128.227 187.702 128.227 187.702Z" fill="#8C8C8C"/>
<path d="M193.406 31.1714C193.406 31.1714 189.685 32.8174 190.269 37.0121C191.758 37.49 194.788 39.6138 191.386 43.8616C192.236 41.897 193.353 39.0298 188.887 37.8085C188.143 35.1537 189.419 31.9147 193.406 31.1714Z" fill="#8C8C8C"/>
<path d="M184.421 28.9943C184.421 28.9943 183.039 38.6049 186.335 45.0297C184.74 44.0208 180.912 37.2244 184.421 28.9943Z" fill="#8C8C8C"/>
<path d="M178.786 29.2598C178.786 29.2598 177.244 37.4899 179.743 44.9235C178.148 44.2863 175.118 35.366 178.786 29.2598Z" fill="#8C8C8C"/>
<path d="M174.373 29.313C174.373 29.313 168.419 40.3572 176.181 46.782C174.107 46.3041 166.133 39.9855 174.373 29.313Z" fill="#8C8C8C"/>
<path d="M130.513 174.534C130.353 173.312 129.928 168.109 128.705 166.675C128.758 166.675 127.482 172.569 130.513 174.534Z" fill="#8C8C8C"/>
<path d="M129.768 163.065C129.768 163.065 130.247 163.171 130.406 162.799C130.566 162.427 131.842 161.843 131.47 161.843C129.449 161.843 129.768 163.065 129.768 163.065Z" fill="#8C8C8C"/>
<path d="M125.409 160.675C126.207 159.56 125.622 158.392 125.622 158.392L123.336 160.569C123.336 160.569 123.336 160.569 122.698 161.844C124.665 162.428 125.409 160.675 125.409 160.675Z" fill="#8C8C8C"/>
<path d="M124.133 163.065C124.133 163.065 124.718 163.914 125.462 164.02C125.781 163.065 124.399 162.905 124.133 163.065Z" fill="#8C8C8C"/>
<path d="M126.206 167.366C125.94 167.472 125.621 171.029 125.621 171.029C125.621 171.029 125.249 175.489 124.824 176.445C128.386 173.79 126.206 167.366 126.206 167.366Z" fill="#8C8C8C"/>
<path d="M21.0479 95.3658C21.0479 95.3658 28.4908 103.755 38.3793 97.8083C31.2022 98.6048 25.7263 98.3393 21.0479 95.3658Z" fill="#8C8C8C"/>
<path d="M148.854 153.454C148.854 153.454 148.961 151.702 144.389 148.729C139.817 145.702 134.553 146.605 134.553 146.605C144.814 148.729 148.854 153.454 148.854 153.454Z" fill="#8C8C8C"/>
<path d="M130.566 159.613C127.961 159.507 127.961 155.684 127.961 155.684C127.536 160.41 130.406 160.728 130.406 160.728C130.406 160.728 140.189 162.109 144.123 161.578C148.163 161.631 149.386 160.091 150.237 159.136C149.067 160.197 146.621 160.197 145.399 160.463C143.591 160.728 133.118 159.666 130.566 159.613Z" fill="#8C8C8C"/>
<path d="M143.804 172.994C142.528 174.162 140.454 175.012 140.454 175.012C142.262 175.012 143.432 174.427 144.229 173.95C144.601 174.215 146.409 172.675 146.568 170.233C146.568 167.312 147.632 164.02 147.632 164.02C147.632 164.02 145.877 166.357 145.346 168.852C145.08 172.41 144.335 172.728 143.804 172.994Z" fill="#8C8C8C"/>
<path d="M136.148 188.127C145.239 188.02 144.282 179.047 144.282 179.047C142.049 186.003 138.381 187.489 136.148 188.127Z" fill="#8C8C8C"/>
<path d="M227.909 79.2242C223.497 79.3835 220.732 81.1357 213.661 75.5074C213.768 76.888 213.768 76.6756 213.768 76.6756C213.768 76.6756 213.821 76.7287 213.927 76.8349C214.14 78.4809 215.363 92.4985 195.479 93.8791C184.049 94.6755 176.659 99.6667 172.725 104.339C170.971 102.587 166.771 98.8702 163.102 99.1888C167.036 100.622 170.439 103.914 171.821 105.454C170.439 107.366 169.641 109.118 169.376 110.498C168.631 112.622 155.553 142.622 129.928 138.852C129.981 137.1 129.928 131.95 137.158 130.941C137.637 130.888 137.53 130.251 137.052 130.251C131.948 129.932 130.247 126.321 129.768 122.764C129.715 122.233 129.662 121.755 129.662 121.224C129.662 120.587 129.662 119.95 129.662 119.313C129.715 118.41 129.768 117.613 129.822 116.976C129.875 116.392 129.928 115.914 129.928 115.649C129.928 113.525 132.586 112.569 132.586 112.569C132.586 112.569 148.854 108.906 145.505 109.012C142.209 109.065 131.31 112.144 130.034 110.711C129.822 110.286 130.459 107.206 130.885 106.569C146.143 97.8614 154.33 98.1268 161.029 97.1711C151.406 93.9853 133.596 101.897 129.396 103.861L128.386 104.286C128.386 104.286 106.801 93.5605 95.8497 97.1711C102.601 98.1268 110.682 97.8083 125.994 106.516C126.419 107.1 127.11 110.233 126.897 110.658C125.568 112.091 114.723 109.012 111.427 108.959C108.131 108.906 124.346 112.516 124.346 112.516C124.346 112.516 127.004 113.472 127.004 115.596C127.004 115.861 127.057 116.339 127.11 116.923C127.216 118.357 127.376 120.534 127.11 122.711C126.632 126.321 124.93 129.879 119.827 130.198C119.348 130.251 119.295 130.835 119.72 130.888C126.951 131.897 126.897 136.994 126.951 138.799C101.326 142.569 88.2472 112.516 87.5029 110.445C87.2371 109.065 86.4396 107.313 85.0573 105.401C86.4928 103.861 89.8421 100.569 93.7763 99.1357C90.1079 98.8171 85.908 102.534 84.1536 104.286C80.2726 99.6136 72.8828 94.6224 61.3993 93.826C40.5058 92.4454 43.1109 76.888 43.164 76.8349C43.164 76.8349 43.164 76.7818 43.164 76.6756V76.6225C43.164 76.6225 43.164 76.6225 43.164 76.5694C43.164 76.5163 43.164 76.4101 43.164 76.357C43.164 76.2508 43.164 76.1446 43.2172 75.9853C43.2172 75.8791 43.2172 75.7198 43.2704 75.5605C36.1995 81.1888 33.5945 79.3304 29.1287 79.1712C35.3489 83.9499 41.7286 78.1623 42.9514 76.9942C39.3894 91.118 55.9234 94.8348 61.612 95.7375C66.5562 95.6313 83.3029 100.782 85.9611 110.923C86.5991 112.569 87.3434 114.109 88.0345 115.596C81.9207 114.481 74.0524 109.437 74.0524 109.437C74.9562 111.029 77.4017 112.675 80.1663 114.162C77.3486 116.021 74.3182 120.321 69.5334 119.95C72.5106 121.171 73.8397 119.95 73.8397 119.95C73.8397 119.95 75.7005 120.321 80.6447 114.428C84.3662 116.392 88.4067 117.879 89.4168 118.251C96.9129 132.109 106.801 137.684 114.723 139.861C103.133 146.87 99.2522 157.967 99.2522 157.967L101.007 159.029L101.113 159.135C103.293 149.047 113.394 142.251 116.584 140.286C122.325 141.507 126.791 141.029 128.173 140.817H128.971C130.194 141.029 134.766 141.56 140.667 140.286C143.857 142.251 153.958 149.047 156.138 159.135L156.244 159.029L158.052 158.127C158.052 158.127 154.064 146.817 142.475 139.808C150.396 137.631 160.285 132.056 167.781 118.198C168.738 117.826 172.778 116.286 176.553 114.375C181.497 120.268 183.358 119.897 183.358 119.897C183.358 119.897 184.687 121.118 187.664 119.897C182.879 120.321 179.849 115.967 177.031 114.109C179.796 112.622 182.241 110.976 183.145 109.383C183.145 109.383 175.277 114.428 169.163 115.543C169.854 114.056 170.598 112.516 171.236 110.87C173.895 100.729 190.641 95.5782 195.585 95.6844C201.221 94.7817 217.649 91.118 214.299 77.1535C215.788 78.7464 221.955 84.003 227.909 79.2242Z" fill="#8C8C8C"/>
<path d="M107.546 152.711C107.546 152.711 110.151 150.852 113.766 149.259C117.009 149.206 121.953 145.436 121.953 145.436C121.953 145.436 116.477 147.56 114.138 147.879C110.204 149.259 107.546 152.711 107.546 152.711Z" fill="#8C8C8C"/>
<path d="M113.075 162.905C116.849 163.277 119.189 162.481 119.189 162.481C119.189 162.481 110.735 161.206 109.938 161.047C109.141 160.888 108.556 160.198 108.556 160.198C108.556 160.198 108.609 162.109 113.075 162.905Z" fill="#8C8C8C"/>
<path d="M109.353 167.366C108.769 169.543 108.715 173.843 111.427 175.755C114.989 179.1 120.146 177.666 120.146 177.666C120.146 177.666 116.956 177.507 113.288 175.543C109.194 172.622 109.353 167.366 109.353 167.366Z" fill="#8C8C8C"/>
<path d="M112.437 180.162C109.566 188.233 117.328 190.091 118.71 189.507C111.799 187.543 112.437 180.162 112.437 180.162Z" fill="#8C8C8C"/>
<path d="M126.153 184.197C126.153 184.197 126.047 186.162 125.675 187.171C129.077 184.516 126.844 179.578 126.844 179.578C126.1 181.171 126.153 184.197 126.153 184.197Z" fill="#8C8C8C"/>
<path d="M218.871 98.0738C228.813 104.021 236.309 95.6313 236.309 95.6313C231.631 98.6048 226.049 98.8703 218.871 98.0738Z" fill="#8C8C8C"/>
<path d="M63.6854 31.1714C63.6854 31.1714 67.4069 32.8174 66.8221 37.0121C65.3335 37.49 62.3032 39.6138 65.7057 43.8616C64.855 41.897 63.7386 39.0298 68.2044 37.8085C69.0018 35.1537 67.6727 31.9147 63.6854 31.1714Z" fill="#8C8C8C"/>
<path d="M72.6703 28.9943C72.6703 28.9943 74.0526 38.6049 70.7564 45.0297C72.3513 44.0208 76.1791 37.2244 72.6703 28.9943Z" fill="#8C8C8C"/>
<path d="M78.3059 29.2598C78.3059 29.2598 79.8476 37.4899 77.3489 44.9235C78.9439 44.2863 81.9742 35.366 78.3059 29.2598Z" fill="#8C8C8C"/>
<path d="M82.7715 29.313C82.7715 29.313 88.7259 40.3572 80.9639 46.782C82.9842 46.3041 90.9588 39.9855 82.7715 29.313Z" fill="#8C8C8C"/>
<path opacity="0.5" d="M64.4831 41.7908C64.4831 40.4634 64.111 40.4634 64.111 40.4634C64.111 40.4634 41.1441 48.3218 41.3036 77.1004C43.4833 75.6137 43.4833 75.6137 43.4833 75.6137C43.4833 75.6137 43.5896 56.8173 64.4831 41.7908Z" fill="#8C8C8C"/>
<path opacity="0.5" d="M213.502 75.5076C213.502 75.5076 213.502 75.5076 215.681 76.9943C215.894 48.2156 192.927 40.4103 192.927 40.4103C192.927 40.4103 192.555 40.4103 192.555 41.7378C213.395 56.7643 213.502 75.5076 213.502 75.5076Z" fill="#8C8C8C"/>
<path opacity="0.5" d="M143.644 149.1C143.644 149.1 137.158 146.817 135.51 146.764C137.105 147.985 148.855 153.507 148.855 153.507C148.482 152.127 143.644 149.1 143.644 149.1Z" fill="#8C8C8C"/>
<path opacity="0.5" d="M150.928 158.445C150.821 158.605 150.662 158.711 150.503 158.87C150.662 158.711 150.821 158.605 150.928 158.445Z" fill="#8C8C8C"/>
<path opacity="0.5" d="M127.961 154.622C127.536 159.348 130.353 159.667 130.353 159.667C130.353 159.667 140.135 160.41 144.07 160.516C147.578 160.569 149.439 159.72 150.449 158.87C149.333 159.613 146.834 159.56 145.452 159.507C143.644 159.826 133.277 158.817 130.672 158.764C128.12 158.658 127.961 154.622 127.961 154.622Z" fill="#8C8C8C"/>
<path opacity="0.5" d="M146.409 168.162L147.313 164.551C147.313 164.551 144.335 166.144 144.335 168.428C144.335 170.445 144.123 171.507 143.644 172.038C143.166 172.569 141.89 174.374 141.89 174.374L144.176 173.312L145.665 171.029L146.409 168.162Z" fill="#8C8C8C"/>
<path opacity="0.5" d="M136.68 188.02C139.125 187.489 139.125 187.489 139.125 187.489L141.89 185.419L143.644 182.233L144.282 179.366C144.229 179.312 137.105 187.808 136.68 188.02Z" fill="#8C8C8C"/>
<path opacity="0.5" d="M128.971 179.365L130.513 185.578C130.513 185.578 131.204 184.038 130.726 182.339C130.247 179.737 128.971 179.365 128.971 179.365Z" fill="#8C8C8C"/>
<path opacity="0.5" d="M128.812 167.1L130.566 174.534C130.566 174.534 131.364 172.675 130.832 170.658C130.247 167.578 128.812 167.1 128.812 167.1Z" fill="#8C8C8C"/>
<path opacity="0.5" d="M113.925 148.622C113.925 148.622 109.832 150.693 109.725 150.746C109.619 150.799 108.13 152.817 108.13 152.817C108.13 152.817 108.396 152.552 113.287 150.64C118.232 150.056 121.953 145.702 121.953 145.702L118.71 147.136L113.925 148.622Z" fill="#8C8C8C"/>
<path opacity="0.5" d="M116.584 162.428L118.87 162.374C118.87 162.374 114.989 160.038 108.662 160.41C109.991 161.472 109.991 161.472 109.991 161.472L112.915 162.056L116.584 162.428Z" fill="#8C8C8C"/>
<path opacity="0.5" d="M109.46 168.534L110.098 172.569L111.905 175.489L115.946 177.401C115.946 177.401 116.159 177.56 119.933 177.666C112.384 175.596 109.46 168.534 109.46 168.534Z" fill="#8C8C8C"/>
<path opacity="0.5" d="M112.437 180.162C112.437 180.162 112.224 181.914 112.224 181.967C112.171 182.073 113.022 185.896 113.022 185.896L115.361 188.498C115.361 188.498 115.361 188.498 118.657 189.454C114.723 186.905 112.437 180.162 112.437 180.162Z" fill="#8C8C8C"/>
<path opacity="0.5" d="M122.698 161.897C123.07 161.843 125.728 158.445 125.622 158.445C123.229 158.764 122.326 161.897 122.698 161.897Z" fill="#8C8C8C"/>
<path opacity="0.5" d="M124.612 172.41C124.718 174.162 124.505 175.702 124.824 176.286C125.569 175.012 125.569 175.012 125.569 175.012L126.366 170.498L126.153 167.79C126.153 167.79 124.558 170.658 124.612 172.41Z" fill="#8C8C8C"/>
<path opacity="0.5" d="M137.318 131.472C138.807 131.259 139.285 129.932 137.318 129.773C128.759 128.286 130.885 117.401 130.938 116.233C130.991 114.799 132.64 114.109 133.224 113.525C133.809 112.941 142.209 111.667 145.133 110.392C148.057 109.118 146.462 108.321 145.612 108.215C137.265 110.127 131.151 110.074 131.151 110.074C131.151 110.074 131.151 109.808 131.629 107.472C141.412 101.26 161.189 97.2242 161.189 97.2242C142.475 96.7463 129.237 106.304 129.237 106.304C129.237 106.304 129.396 121.702 130.034 138.959C131.523 133.436 135.829 131.684 137.318 131.472Z" fill="#8C8C8C"/>
<path opacity="0.5" d="M249.494 75.8792C249.494 75.8792 247.952 81.6136 224.082 98.8171C222.965 102.162 213.024 117.773 176.978 114.162C176.978 114.162 183.677 121.224 187.664 120.003C193.193 119.95 200.211 119.844 209.94 116.976C219.563 113.95 228.654 109.224 233.545 97.7552C238.011 93.8791 259.967 83.4189 249.494 75.8792Z" fill="#8C8C8C"/>
<path opacity="0.5" d="M176.5 114.375C176.5 114.375 174.479 138.746 155.394 152.923C149.546 158.764 148.961 166.144 149.067 169.33C149.173 172.516 149.811 185.259 144.442 190.463C149.067 190.197 152.948 190.463 153.427 166.41C154.383 162.162 156.244 159.242 160.232 157.436C164.272 155.525 180.168 135.56 183.677 119.79C181.869 119.897 177.35 115.543 176.5 114.375Z" fill="#8C8C8C"/>
<path opacity="0.5" d="M129.449 140.764H127.695C102.283 142.516 89.4168 118.251 89.4168 118.251L80.5916 114.375C80.5916 114.375 80.6447 114.534 87.875 118.622C101.91 148.038 127.642 142.516 127.642 142.516H129.449C129.449 142.516 155.181 148.038 169.216 118.622C176.446 114.534 176.5 114.375 176.5 114.375L167.674 118.251C167.728 118.251 154.862 142.516 129.449 140.764Z" fill="#8C8C8C"/>
<path opacity="0.5" d="M80.1664 114.162C44.1211 117.773 34.1794 102.162 33.063 98.8171C9.13916 81.6136 7.65056 75.8792 7.65056 75.8792C-2.82276 83.4189 19.134 93.8791 23.5998 97.7552C28.4909 109.224 37.5819 113.95 47.2047 116.976C56.9868 119.791 64.0045 119.95 69.4804 120.003C73.4145 121.171 80.1664 114.162 80.1664 114.162Z" fill="#8C8C8C"/>
<path opacity="0.5" d="M73.4144 119.844C76.9233 135.613 92.7662 155.578 96.8598 157.49C100.847 159.295 102.708 162.215 103.665 166.463C104.143 190.516 108.024 190.25 112.65 190.516C107.28 185.312 107.918 172.569 108.024 169.383C108.131 166.197 107.546 158.817 101.698 152.976C82.6118 138.799 80.5916 114.428 80.5916 114.428C79.741 115.543 75.222 119.897 73.4144 119.844Z" fill="#8C8C8C"/>
<path opacity="0.5" d="M125.941 110.127C125.941 110.127 119.827 110.18 111.48 108.268C110.63 108.428 109.088 109.171 111.959 110.445C114.883 111.72 123.283 112.994 123.868 113.578C124.452 114.162 126.047 114.852 126.154 116.286C126.207 117.401 128.333 128.339 119.774 129.826C117.86 129.985 118.285 131.313 119.774 131.525C121.262 131.737 125.569 133.49 127.057 138.959C127.695 121.702 127.855 106.304 127.855 106.304C127.855 106.304 114.617 96.7463 95.9032 97.2242C95.9032 97.2242 115.68 101.26 125.462 107.472C125.941 109.861 125.941 110.127 125.941 110.127Z" fill="#8C8C8C"/>
<path d="M187.924 232.172C187.882 232.13 187.882 232.046 187.84 232.004C187.631 232.046 187.463 232.046 187.253 232.088C186.917 232.172 186.623 232.256 186.288 232.34C186.372 232.298 186.456 232.214 186.498 232.172C186.456 232.13 186.456 232.047 186.414 232.005C186.204 232.047 186.036 232.047 185.826 232.089C184.357 232.466 182.888 232.928 181.377 233.264C179.825 233.641 178.272 233.893 176.719 234.187C176.048 234.313 175.334 234.397 174.663 234.439C174.033 234.481 173.362 234.565 172.732 234.565C171.432 234.481 170.299 233.936 169.125 233.265C169.083 233.265 169.083 233.223 169.041 233.223C169.209 233.265 169.419 233.265 169.587 233.265C169.838 233.265 170.048 233.223 170.258 233.181C170.468 233.265 170.719 233.307 170.971 233.265C172.104 233.223 173.028 232.803 173.826 232.09C174.246 231.796 174.623 231.461 174.96 231.041C175.506 230.37 175.548 229.531 175.213 228.818C174.753 227.853 174.04 226.973 172.781 226.973C172.404 226.973 171.984 226.973 171.564 226.973C171.481 226.973 171.439 226.973 171.355 226.973C170.725 226.973 170.138 226.973 169.466 227.015C169.425 226.931 169.383 226.847 169.341 226.805C168.838 226.26 168.25 226.092 167.747 226.344C167.663 226.386 167.663 226.428 167.579 226.47C167.159 226.218 166.74 226.135 166.32 226.344C166.152 226.428 166.068 226.512 165.984 226.638C165.942 226.638 165.9 226.638 165.9 226.68C165.312 226.974 165.396 227.519 165.479 228.022C165.563 228.4 165.437 228.652 165.269 228.945C164.554 229.952 164.176 231.001 164.594 232.259C164.887 233.098 165.432 233.769 166.103 234.23C168.032 235.572 170.171 236.243 172.521 236.117C173.193 236.159 173.864 236.159 174.577 236.075C177.095 235.739 179.571 235.319 182.006 234.648C183.516 234.228 185.028 233.641 186.497 233.137C186.832 233.011 187.126 232.76 187.42 232.55C187.63 232.382 187.756 232.256 187.924 232.172ZM169.968 228.693C170.43 228.945 170.933 228.986 171.521 228.819C171.563 228.819 171.563 228.819 171.605 228.819C171.814 228.902 172.024 228.944 172.234 228.944C172.318 229.028 172.36 229.154 172.443 229.322C172.778 230.119 172.82 230.287 172.358 230.748C172.064 230.958 171.77 231.126 171.351 231.21C170.931 231.084 170.596 230.79 170.261 230.329C170.009 229.951 169.884 229.532 169.674 229.154C169.758 228.987 169.842 228.819 169.968 228.693ZM174.037 230.161C174.037 230.244 174.037 230.286 173.995 230.328C173.995 230.244 174.037 230.202 174.037 230.161Z" fill="#FFAA00"/>
<path d="M172.434 237.622C172.392 237.581 172.392 237.497 172.35 237.455C172.14 237.497 171.972 237.497 171.763 237.539C171.427 237.623 171.133 237.707 170.797 237.79C170.881 237.749 170.965 237.665 171.007 237.623C170.965 237.581 170.965 237.497 170.924 237.455C170.714 237.497 170.546 237.497 170.336 237.539C168.867 237.917 167.398 238.378 165.887 238.714C164.334 239.092 162.782 239.385 161.229 239.637C160.557 239.763 159.844 239.847 159.172 239.889C158.543 239.931 157.872 240.015 157.242 240.015C155.942 239.932 154.809 239.387 153.635 238.716C153.803 238.757 153.97 238.757 154.138 238.757C154.39 238.757 154.6 238.715 154.81 238.673C155.019 238.757 155.271 238.799 155.523 238.757C156.74 238.715 157.747 238.17 158.587 237.373C158.881 237.121 159.175 236.827 159.469 236.492C160.015 235.82 160.058 234.981 159.723 234.268C159.262 233.304 158.55 232.423 157.291 232.423C156.871 232.423 156.494 232.423 156.074 232.423C155.99 232.423 155.948 232.423 155.906 232.423C155.277 232.423 154.648 232.423 154.018 232.465C153.976 232.382 153.934 232.298 153.892 232.256C153.389 231.711 152.802 231.543 152.298 231.795C152.214 231.836 152.214 231.878 152.13 231.92C151.711 231.669 151.292 231.585 150.872 231.795C150.704 231.879 150.578 232.004 150.536 232.13L150.494 232.13C149.906 232.424 149.99 232.969 150.073 233.473C150.157 233.85 150.03 234.102 149.862 234.396C149.148 235.402 148.769 236.451 149.188 237.709C149.481 238.548 150.026 239.219 150.697 239.681C152.626 241.023 154.765 241.694 157.115 241.567C157.786 241.609 158.458 241.609 159.171 241.525C161.689 241.189 164.165 240.77 166.599 240.098C168.11 239.678 169.621 239.091 171.09 238.587C171.426 238.462 171.72 238.168 172.014 237.958C172.014 237.958 172.014 237.916 171.972 237.916C172.14 237.832 172.266 237.748 172.434 237.622ZM154.478 234.227C154.939 234.479 155.443 234.521 156.03 234.353C156.072 234.353 156.072 234.353 156.114 234.353C156.324 234.437 156.534 234.479 156.744 234.479C156.828 234.562 156.869 234.688 156.953 234.814C157.288 235.611 157.33 235.779 156.868 236.24C156.574 236.45 156.28 236.618 155.902 236.702C155.483 236.576 155.106 236.282 154.812 235.821C154.561 235.444 154.435 235.024 154.226 234.647C154.31 234.479 154.394 234.353 154.478 234.227Z" fill="#FFAA00"/>
<path d="M148.798 244.501C148.715 243.956 148.631 243.453 148.548 242.907C148.298 241.188 148.048 239.469 147.881 237.75C147.632 234.899 147.299 232.089 146.715 229.28C146.506 228.274 146.213 227.309 146.088 226.303C145.838 224.709 145.63 223.158 145.17 221.649C144.626 219.762 144.04 217.917 143.245 216.114C142.659 214.73 141.737 213.598 141.109 212.256C140.984 212.005 140.774 211.753 140.607 211.502C140.355 211.208 140.104 211.124 139.894 211.166C139.642 211.124 139.349 211.208 139.013 211.334C138.594 210.999 138.216 211.125 138.006 211.754C138.006 211.795 138.006 211.879 137.964 211.921C137.838 212.005 137.712 212.173 137.628 212.383C137.586 212.508 137.544 212.676 137.544 212.802C137.585 213.892 137.626 214.94 137.667 216.031C137.708 216.576 137.749 217.121 137.875 217.624C138.209 218.924 138.124 220.308 139.172 221.356C139.339 221.523 139.465 221.733 139.717 221.733C141.226 222.865 141.52 221.817 141.563 221.146C141.563 221.104 141.563 221.104 141.563 221.062L141.605 221.062C141.73 221.523 141.856 221.984 141.981 222.446C142.608 224.961 143.109 227.477 143.61 229.993C143.819 231.083 143.902 232.215 144.152 233.264C144.487 234.522 144.612 235.821 144.694 237.079C144.944 239.679 145.487 242.237 146.114 244.753C146.197 245.13 146.406 245.466 146.658 245.927C148.293 246.639 148.63 245.256 148.714 244.794C148.84 244.71 148.84 244.627 148.798 244.501Z" fill="#FFAA00"/>
<path d="M144.298 257.37C144.09 255.902 143.924 254.434 143.505 253.05C143.045 251.667 142.333 250.367 141.663 249.067C141.286 248.354 140.741 247.725 140.323 247.054C139.904 246.299 139.527 245.503 139.15 244.706C139.108 244.538 138.983 244.286 138.773 244.035C138.773 244.035 138.773 243.993 138.731 243.993C138.689 243.951 138.605 243.867 138.564 243.867C138.228 243.616 137.725 243.448 136.927 243.825C136.927 243.825 136.927 243.825 136.885 243.825C136.802 243.825 136.676 243.867 136.592 243.951C136.55 243.951 136.55 243.993 136.55 244.035C135.752 244.539 135.542 244.958 135.584 245.293C135.584 245.293 135.584 245.293 135.584 245.335C135.583 245.545 135.709 245.797 135.751 246.048C135.793 246.216 135.792 246.384 135.75 246.551C135.666 246.552 135.624 246.593 135.54 246.593L135.499 246.593C135.247 246.552 134.995 246.552 134.701 246.51C133.024 246.258 132.101 245.462 131.809 243.826C131.768 243.575 131.768 243.365 131.852 243.197C132.565 242.778 133.321 242.61 134.118 242.526C134.244 242.568 134.37 242.568 134.495 242.568C134.999 242.652 135.544 242.735 136.047 242.819L138.858 243.364C138.858 243.364 138.859 241.603 137.937 241.183C137.895 241.183 137.895 241.141 137.895 241.141C137.224 240.764 136.553 240.471 135.756 240.471C135.504 240.471 135.294 240.513 135.043 240.555C134.833 240.513 134.581 240.471 134.371 240.471C132.735 240.513 131.225 241.017 129.923 241.981C129.755 242.107 129.587 242.317 129.461 242.527C129.335 242.61 129.251 242.652 129.125 242.736C128.832 242.946 128.537 243.365 128.537 243.701C128.452 244.917 128.745 246.049 129.583 246.93C130.631 248.02 132.602 248.523 134.154 248.355C135.161 248.481 136.126 248.355 136.84 247.977C137.259 248.69 137.635 249.403 138.012 250.074C138.808 251.458 139.73 252.799 140.064 254.435C140.189 255.106 140.272 255.819 140.44 256.448C140.942 257.999 140.731 259.509 140.058 260.935C139.722 261.69 139.343 262.529 138.797 263.116C137.79 263.997 136.656 264.71 135.355 265.171C135.02 265.297 134.642 265.339 134.306 265.507C133.341 266.01 132.334 266.22 131.327 266.262C131.159 266.262 131.033 266.262 130.866 266.262C129.607 266.179 128.433 265.843 127.469 265.005C127.091 264.669 126.84 264.334 126.924 263.747C126.967 263.537 126.967 263.327 126.925 263.16L127.052 261.776C127.052 261.776 125.417 260.644 124.408 262.741C124.324 262.866 124.24 262.95 124.156 263.076C123.273 265.005 124.069 266.85 126.166 267.647C127.508 268.15 128.892 268.317 130.276 268.233C131.787 268.359 133.339 268.107 134.85 267.688C136.612 267.184 138.333 266.387 139.76 265.087C140.18 264.709 140.684 264.374 141.02 263.954C141.356 263.703 141.692 263.409 141.944 263.073C142.49 262.319 142.994 261.522 143.372 260.683C143.919 259.634 144.423 258.544 144.298 257.37Z" fill="#E83838"/>
<path d="M129.114 250.998C129.072 250.704 128.947 250.369 128.821 250.117C128.402 249.237 127.9 248.356 127.355 247.559C126.978 246.972 126.559 246.469 126.392 245.798C126.35 245.588 126.224 245.421 126.14 245.295L126.141 245.253L126.099 245.253C125.847 244.959 125.47 244.75 125.05 244.666C124.883 244.624 124.715 244.666 124.589 244.708C121.695 243.953 121.861 245.715 121.902 246.134C121.902 246.218 121.86 246.302 121.902 246.428C121.986 246.721 122.195 247.015 122.405 247.224C122.782 247.602 123.201 247.937 123.579 248.315C124.668 249.447 125.548 250.789 126.134 252.256C126.301 252.718 126.804 253.682 127.979 253.305C129.07 252.885 129.281 251.711 129.114 250.998Z" fill="#E83838"/>
<path d="M124.129 241.103C124.045 240.768 123.877 240.474 123.668 240.181C123.668 240.181 123.668 240.181 123.626 240.139C123.458 239.929 123.333 239.719 123.207 239.468C123.207 239.468 123.165 239.426 123.123 239.426C122.914 239.258 122.578 239.258 121.907 239.384C121.067 239.594 121.277 240.181 121.277 240.181C121.277 240.307 121.318 240.391 121.36 240.516L121.402 240.642L121.444 240.642C121.444 240.684 121.486 240.684 121.486 240.726C121.695 241.103 121.905 241.439 122.072 241.858C122.072 241.858 122.156 242.11 122.281 242.403C122.491 242.781 122.826 243.116 123.33 242.655C124.463 242.193 124.212 241.355 124.129 241.103Z" fill="#E83838"/>
<path d="M121.969 249.11C121.593 247.851 121.3 246.551 120.504 245.377C119.205 243.49 117.864 241.729 115.893 240.513C114.761 239.842 113.713 239.045 112.455 238.584C111.281 238.165 110.19 237.62 109.058 237.159C108.009 236.74 107.003 236.32 105.954 235.985C105.325 235.775 104.612 235.608 103.941 235.44C102.767 235.105 101.592 234.769 100.376 234.476C98.1945 233.931 95.9713 233.554 93.7902 232.883C92.3222 232.422 90.8965 231.667 89.4706 231.039C88.9673 230.829 88.8418 230.452 88.9262 229.948C89.0106 229.403 89.095 228.816 89.0956 228.229C89.0958 227.977 89.1379 227.809 89.222 227.642C90.1456 227.054 91.0691 226.467 92.0346 225.922C92.8742 225.418 93.7976 224.957 94.5952 224.453C96.6522 223.111 98.7093 221.769 100.766 220.342C102.068 219.462 103.327 218.539 104.587 217.616C106.644 216.022 108.701 214.386 110.759 212.792C110.885 212.666 111.053 212.582 111.179 212.456C111.347 212.289 111.515 212.121 111.641 211.953C111.766 211.869 111.85 211.785 111.934 211.701C112.606 211.03 113.236 210.317 113.908 209.604C115.252 208.22 116.261 206.668 116.85 204.823C117.186 203.816 117.145 202.809 116.768 201.803C116.517 201.132 116.056 200.629 115.301 200.335C114.211 199.916 113.036 199.79 111.904 199.455C110.688 199.12 109.471 199.078 108.254 199.12C107.625 199.078 106.954 199.12 106.324 199.12C104.478 199.246 102.632 199.456 100.744 199.666C99.8625 199.75 99.0233 199.834 98.1422 199.96C97.0092 200.128 95.9182 200.38 94.7852 200.59C93.1906 200.884 91.5542 201.052 90.0015 201.429C87.2319 202.059 84.4622 202.814 81.6925 203.528C80.0978 203.947 78.4612 204.283 76.9085 204.745C75.0619 205.29 73.2573 205.877 71.4108 206.465C70.0678 206.885 68.7248 207.346 67.3818 207.808C66.1648 208.185 64.9478 208.521 63.7727 208.899C61.9261 209.528 60.0794 210.199 58.2329 210.787C56.6381 211.332 55.0433 211.794 53.4485 212.381C52.3573 212.759 51.3079 213.346 50.1748 213.682C49.1676 213.975 48.2861 214.479 47.4046 214.94C46.691 215.318 45.8937 215.528 45.1382 215.821C44.8025 215.947 44.4248 216.031 44.1309 216.199C43.8791 216.367 43.711 216.576 43.6269 216.828C43.543 216.87 43.417 216.912 43.3331 216.954C42.8294 217.248 42.619 217.877 42.9963 218.254C43.8765 219.135 44.8407 219.931 45.8049 220.77C46.0564 220.98 46.35 221.105 46.6015 221.315C46.8531 221.525 47.1046 221.776 47.3981 221.902C47.9853 222.112 48.3625 222.531 48.6138 223.034C48.9489 223.621 49.368 224.083 49.8711 224.502C49.8711 224.502 52.0086 226.808 53.5619 225.802C53.6458 225.802 53.6878 225.76 53.7299 225.676C54.6115 225.088 54.9055 224.669 54.6544 223.998C54.6127 223.746 54.529 223.537 54.4033 223.327C54.2358 223.033 54.0262 222.824 53.8166 222.572C53.7747 222.53 53.7747 222.53 53.7328 222.488C53.6071 222.321 53.4814 222.195 53.3555 222.153C53.104 221.901 52.8105 221.692 52.4751 221.524C51.9299 221.23 51.4268 220.853 50.9657 220.434C50.0435 219.553 49.0793 218.673 47.9051 218.086C47.7794 218.002 47.6536 217.876 47.5279 217.75C48.0316 217.498 48.5352 217.289 48.9551 216.911C49.2491 216.617 49.8364 216.659 50.0886 216.156C50.1306 216.072 50.2985 216.03 50.4244 216.03C51.3055 215.946 52.103 215.569 52.8585 215.191C53.8659 214.688 54.9571 214.268 56.0901 214.058C56.258 214.016 56.4258 213.974 56.6357 213.89C56.6776 213.932 56.7196 213.932 56.7615 213.974C56.7615 213.932 56.8035 213.89 56.8036 213.848C57.2232 213.723 57.6848 213.639 58.146 213.974C58.1884 213.471 58.4823 213.303 58.8181 213.135C58.86 213.177 58.9019 213.177 58.9439 213.177C58.9439 213.135 58.9859 213.093 58.986 213.051C60.0772 212.632 61.1684 212.212 62.2596 211.834C63.8963 211.289 65.533 210.827 67.1698 210.282C68.7226 209.779 70.2334 209.275 71.7862 208.772C72.3738 208.562 72.9613 208.352 73.5909 208.142C75.6053 207.555 77.6196 207.009 79.6341 206.338C79.8439 206.254 80.0957 206.17 80.3056 206.086C82.4038 205.583 84.5021 205.037 86.6003 204.533C88.153 204.156 89.6638 203.652 91.2164 203.358C93.6503 202.855 96.1259 202.519 98.5598 202.057C101.329 201.554 104.099 201.176 106.868 201.008C107.078 201.008 107.329 201.007 107.539 200.966C108.756 201.007 109.93 201.133 111.105 201.468C111.692 201.636 112.279 201.971 112.824 202.223C113.328 202.474 113.579 202.936 113.62 203.439C113.704 204.152 113.871 204.865 113.241 205.494C113.073 205.662 113.031 205.997 112.905 206.249C112.694 206.668 112.526 207.13 112.274 207.549C111.98 208.011 111.644 208.43 111.35 208.891C111.056 209.227 108.368 212.289 107.654 212.834C107.612 212.876 107.528 212.96 107.486 213.002C107.276 213.17 107.024 213.338 106.814 213.464C104.673 214.932 102.616 216.442 100.475 217.952C99.4674 218.665 98.4179 219.336 97.4103 220.007C95.3533 221.308 93.2963 222.608 91.2393 223.909C90.6096 224.286 89.9799 224.706 89.3502 225.083C89.3504 224.957 89.3505 224.832 89.3506 224.706C89.5201 222.902 89.6896 221.057 89.9011 219.254C90.2817 216.024 90.1588 212.837 89.4065 209.692C89.2392 209.063 89.0301 208.433 88.8208 207.846C88.6536 207.217 88.2343 206.882 86.7236 207.259C85.8424 207.469 85.5481 208.057 85.5057 208.518C85.5057 208.602 85.4636 208.686 85.4635 208.811C85.4634 208.937 85.5052 209.063 85.547 209.231C85.547 209.315 85.5889 209.357 85.5889 209.357C85.7142 209.902 85.8816 210.405 85.965 210.95C86.0902 211.705 86.1314 212.502 86.2565 213.257C86.4236 214.054 86.339 214.851 86.4221 215.647C86.5468 216.989 86.4616 218.331 86.3345 219.674C86.207 221.393 85.9538 223.071 85.7424 224.79C85.5731 226.342 85.5716 227.936 84.4796 229.194C84.4376 229.278 84.3956 229.362 84.3535 229.446C84.2272 229.907 84.101 230.285 84.4782 230.788C84.7715 231.207 84.8547 231.878 84.8542 232.423C84.8535 233.262 84.6849 234.101 84.5582 234.94C84.3471 236.408 84.0521 237.834 83.8829 239.301C83.6716 240.937 83.5442 242.573 83.3749 244.208C83.2054 246.012 83.0778 247.815 82.9503 249.577C82.8654 250.709 82.8224 251.841 82.7794 252.974C82.7365 253.938 82.7776 254.903 82.7767 255.868C82.7765 256.119 82.8182 256.329 82.818 256.581C82.7748 257.923 82.8574 259.265 83.066 260.607C83.024 260.607 82.982 260.649 82.982 260.649C82.982 260.649 83.0232 261.446 83.3583 262.116C83.7352 262.871 84.4058 263.5 85.7491 262.745C86.7147 262.116 87.0085 261.906 87.009 261.445C87.093 261.277 87.0094 261.026 86.9676 260.816C86.5087 258.048 86.5532 255.238 86.5978 252.428C86.6425 249.45 86.897 246.473 87.1095 243.537C87.3222 240.349 87.7867 237.162 88.2931 234.016C88.8383 234.268 89.4255 234.436 90.0127 234.561C90.3902 234.645 90.7678 234.687 91.1453 234.813C91.8583 235.022 92.5713 235.316 93.2843 235.526C95.5493 236.154 97.8986 236.406 100.079 237.202C101.128 237.579 102.303 237.789 103.351 238.166C105.364 238.879 107.293 239.759 109.264 240.598C111.361 241.478 113.374 242.694 115.009 244.413C116.392 245.881 117.523 247.475 118.235 249.362C118.402 249.739 118.444 250.201 118.443 250.578C118.358 251.836 117.812 252.969 116.93 253.891C116.72 254.101 116.51 254.311 116.3 254.521C115.04 255.653 113.655 256.66 112.227 257.625C109.961 259.093 107.442 260.058 104.966 261.023C104.588 261.191 104.169 261.358 103.791 261.442C100.853 262.24 97.8738 263.079 94.8943 263.834C93.9291 264.086 92.9638 264.464 91.9988 264.464C90.7402 264.422 89.6071 264.758 88.4321 265.01C86.2081 265.471 83.9839 266.101 81.7598 266.604C79.4938 267.108 77.2278 267.569 74.9618 267.989C74.5002 268.073 74.0386 268.199 73.577 268.283C73.4512 268.241 73.2833 268.283 73.1574 268.325C72.8637 268.367 72.5281 268.367 72.1925 268.283C71.9408 268.241 71.647 268.325 71.3952 268.451C69.8004 269.038 68.2056 269.584 66.569 269.92C66.4011 269.962 66.2333 270.004 66.0654 270.088C65.8135 270.255 65.6874 270.465 65.6452 270.717C65.5193 270.759 65.3934 270.801 65.3095 270.843C64.9317 271.052 64.7635 271.472 64.889 271.849C65.0564 272.268 65.392 272.394 65.7696 272.31C66.0214 272.268 66.2732 272.226 66.525 272.142C66.6927 272.268 66.9024 272.31 67.1542 272.31C67.6577 272.226 68.1612 272.142 68.6648 272.016C70.9308 271.513 73.1133 270.674 75.4209 270.631C75.5887 270.631 75.7146 270.547 75.8405 270.547C77.2253 270.212 78.6521 269.918 80.0369 269.582C80.5824 269.456 81.086 269.288 81.5896 269.163C83.0584 268.785 84.5691 268.407 86.0379 268.03C87.4227 267.694 88.8495 267.358 90.2762 267.064C92.5003 266.645 94.7242 266.309 96.8646 265.595C99.1728 264.84 101.523 264.127 103.831 263.456C106.307 262.742 108.657 261.777 110.966 260.686C113.442 259.512 115.668 257.918 117.725 256.114C117.977 255.904 118.229 255.653 118.481 255.401C118.481 255.401 118.523 255.401 118.523 255.359C119.321 254.646 120.077 253.849 120.749 253.01C121.757 251.71 122.387 250.494 121.969 249.11Z" fill="#E83838"/>
</svg>
