<svg width="18" height="18" viewBox="0 0 18 18" fill="none" xmlns="http://www.w3.org/2000/svg">
<path fill-rule="evenodd" clip-rule="evenodd" d="M1.125 8.99999C1.125 8.85081 1.18426 8.70774 1.28975 8.60225C1.39524 8.49676 1.53832 8.43749 1.6875 8.43749H14.9546L11.4142 4.89824C11.3086 4.79262 11.2493 4.64937 11.2493 4.49999C11.2493 4.35062 11.3086 4.20737 11.4142 4.10174C11.5199 3.99612 11.6631 3.93678 11.8125 3.93678C11.9619 3.93678 12.1051 3.99612 12.2108 4.10174L16.7108 8.60174C16.7631 8.65399 16.8047 8.71607 16.8331 8.78441C16.8614 8.85274 16.876 8.926 16.876 8.99999C16.876 9.07398 16.8614 9.14724 16.8331 9.21558C16.8047 9.28392 16.7631 9.34599 16.7108 9.39824L12.2108 13.8982C12.1051 14.0039 11.9619 14.0632 11.8125 14.0632C11.6631 14.0632 11.5199 14.0039 11.4142 13.8982C11.3086 13.7926 11.2493 13.6494 11.2493 13.5C11.2493 13.3506 11.3086 13.2074 11.4142 13.1017L14.9546 9.56249H1.6875C1.53832 9.56249 1.39524 9.50323 1.28975 9.39774C1.18426 9.29225 1.125 9.14918 1.125 8.99999V8.99999Z" fill="white"/>
</svg>
